<svg id="Layer_1" data-name="Layer 1" xmlns="http://www.w3.org/2000/svg" viewBox="0 0 152.8 34.33"><defs><style>.cls-1{fill:#fff;}.cls-2{fill:#3ea835;}.cls-3{fill:#faf19c;}</style></defs><g id="ICON"><g id="FRAME"><path id="BACKGROUND" class="cls-1" d="M31.06,14.2V32a4.73,4.73,0,0,1-4.73,4.73H7.43A4.73,4.73,0,0,1,2.7,32h0V25.62h0V9.87A4.74,4.74,0,0,1,7.43,5.13h18.9a4.73,4.73,0,0,1,4.73,4.73h0Z" transform="translate(-1.33 -3.77)"/><path id="OUTLINE" class="cls-2" d="M26.33,3.77H7.43a6.1,6.1,0,0,0-6.1,6.09h0V32h0a6.1,6.1,0,0,0,6.1,6.09h18.9A6.1,6.1,0,0,0,32.43,32V9.87h0a6.1,6.1,0,0,0-6.1-6.1ZM31.06,14.2V32a4.73,4.73,0,0,1-4.73,4.73H7.43A4.73,4.73,0,0,1,2.7,32h0V25.62h0V9.87A4.74,4.74,0,0,1,7.43,5.13h18.9a4.73,4.73,0,0,1,4.73,4.73h0Z" transform="translate(-1.33 -3.77)"/></g><g id="INITIALS"><path class="cls-2" d="M7.93,22.5h0a5.12,5.12,0,0,1-4-1.88V31.79a4,4,0,0,0,4,4h4V20.61A5.1,5.1,0,0,1,7.93,22.5Z" transform="translate(-1.33 -3.77)"/><path class="cls-2" d="M7.93,12.26h0a5.12,5.12,0,0,1,4,1.88v-8h-4a4,4,0,0,0-4,4v4A5.1,5.1,0,0,1,7.93,12.26Z" transform="translate(-1.33 -3.77)"/><path class="cls-2" d="M17.14,12.28h3.95V10.11a4,4,0,0,0-4-4h-4V14.2A5.12,5.12,0,0,1,17.14,12.28Z" transform="translate(-1.33 -3.77)"/><path class="cls-3" d="M17.12,13.43h0a4,4,0,0,0-4,4v4h4a4,4,0,0,0,4-4v-4Z" transform="translate(-1.33 -3.77)"/><path class="cls-3" d="M26,13.35H22.3v4.13a5.12,5.12,0,0,1-5.12,5.12h-4V35.81h4a4,4,0,0,0,4-4V21.54H26a4.21,4.21,0,0,0,4-4.22A4,4,0,0,0,26,13.35Z" transform="translate(-1.33 -3.77)"/></g><g id="BALL"><path class="cls-3" d="M10.64,14.5A4,4,0,0,0,4,17.07Z" transform="translate(-1.33 -3.77)"/><path class="cls-3" d="M11.27,15.25,4,18a3.88,3.88,0,0,0,.6,1.54l7.23-2.78A3.94,3.94,0,0,0,11.27,15.25Z" transform="translate(-1.33 -3.77)"/><path class="cls-3" d="M5.26,20.33a4,4,0,0,0,6.62-2.55Z" transform="translate(-1.33 -3.77)"/></g></g><g id="TEXT"><path class="cls-2" d="M37.73,3.8H46c3.56,0,6,1.77,6,4.83s-2.34,4.95-6,4.95H42.52v5H37.73Zm4.79,6.53H45.3c1.3,0,2.05-.53,2.05-1.66,0-.94-.56-1.63-2.05-1.63H42.52Z" transform="translate(-1.33 -3.77)"/><path class="cls-2" d="M57.05,15.84l-.94,2.76H51.29l5.6-14.8h6.27l6,14.8H64l-1-2.76Zm4.78-3.42c-1-2.66-1.52-4.35-1.89-5.59h-.08c-.32,1.23-1,3.33-1.76,5.59Z" transform="translate(-1.33 -3.77)"/><path class="cls-2" d="M75.42,13.16V18.6H70.71V3.8h9c3.68,0,5.6,1.8,5.6,4.25a3.56,3.56,0,0,1-2.55,3.55c.8.34,2.16,1.05,2.16,3.56V16a11.24,11.24,0,0,0,.2,2.64h-4.8a9.24,9.24,0,0,1-.3-3.06V15c0-1.38-.44-1.89-2.3-1.89Zm0-3.08h2.94c1.32,0,2-.47,2-1.54S79.73,7,78.36,7H75.42Z" transform="translate(-1.33 -3.77)"/><path class="cls-2" d="M91.54,7.22H86.66V3.8h14.56V7.22H96.35V18.6H91.54Z" transform="translate(-1.33 -3.77)"/><path class="cls-2" d="M108.11,3.8V18.6h-4.82V3.8Z" transform="translate(-1.33 -3.77)"/><path class="cls-2" d="M111.57,3.8h4.82V15.18h8l-.57,3.42h-12.2Z" transform="translate(-1.33 -3.77)"/><path class="cls-2" d="M126.06,3.8h4.82V15.18h8l-.57,3.42h-12.2Z" transform="translate(-1.33 -3.77)"/><path class="cls-2" d="M153.19,12.72h-7.91v2.47h8.85l-.55,3.41h-13V3.8h13.07V7.23h-8.32V9.3h7.91Z" transform="translate(-1.33 -3.77)"/><path class="cls-2" d="M42.61,26.34H37.73V22.93H52.27v3.41H47.42v11.4H42.61Z" transform="translate(-1.33 -3.77)"/><path class="cls-2" d="M67,31.85H59.1v2.47h8.84l-.55,3.42h-13V22.93H67.43v3.43H59.1v2.06H67Z" transform="translate(-1.33 -3.77)"/><path class="cls-2" d="M70.23,37.74V22.93h5.61c3.27,5.31,4.38,7.23,5.34,9.13h.08c-.14-1.39-.13-4.07-.13-6.51V22.93h4.33V37.74h-5.3c-1.15-2.06-4.79-8.36-5.67-10.17h-.07c.14,1.69.15,3.65.15,6.56v3.61Z" transform="translate(-1.33 -3.77)"/><path class="cls-2" d="M88.92,37.74V22.93h5.61c3.27,5.31,4.38,7.23,5.33,9.13h.08c-.13-1.39-.12-4.07-.12-6.51V22.93h4.33V37.74h-5.3c-1.15-2.06-4.79-8.36-5.67-10.17h-.06c.14,1.69.15,3.65.15,6.56v3.61Z" transform="translate(-1.33 -3.77)"/><path class="cls-2" d="M112.42,22.93V37.74h-4.8V22.93Z" transform="translate(-1.33 -3.77)"/><path class="cls-2" d="M119.37,33.28c.32,1,1.08,1.71,3,1.71,1.71,0,2.24-.51,2.24-1.25s-.47-1.24-3.24-1.73c-5.46-.95-6.26-2.82-6.26-4.77,0-2.93,2.76-4.63,6.8-4.63,4.92,0,6.9,2.27,7.09,4.46h-4.68c-.16-.66-.58-1.41-2.42-1.41-1.3,0-1.92.42-1.92,1.11s.62,1,2.92,1.42c5.59,1,6.67,2.76,6.67,5,0,2.82-2.37,4.88-7.4,4.88S115,36,114.56,33.28Z" transform="translate(-1.33 -3.77)"/></g></svg>