<svg id="Layer_1" data-name="Layer 1" xmlns="http://www.w3.org/2000/svg" viewBox="0 0 811.45 182.31"><defs><style>.cls-1{fill:#fff;}.cls-2{fill:#3ea835;}.cls-3{fill:#faf19c;}</style></defs><g id="ICON"><g id="FRAME"><path id="BACKGROUND" class="cls-1" d="M173.44,105v94.54a25.12,25.12,0,0,1-25.12,25.12H47.93a25.12,25.12,0,0,1-25.12-25.12h0V165.65h0V82A25.12,25.12,0,0,1,47.93,56.87H148.32A25.12,25.12,0,0,1,173.44,82h0v23Z" transform="translate(-15.54 -49.6)"/><path id="OUTLINE" class="cls-2" d="M148.32,49.6H47.93A32.39,32.39,0,0,0,15.54,82V199.52h0a32.39,32.39,0,0,0,32.39,32.39H148.32a32.39,32.39,0,0,0,32.39-32.39V82h0A32.39,32.39,0,0,0,148.32,49.6ZM173.44,105v94.54a25.12,25.12,0,0,1-25.12,25.12H47.93a25.12,25.12,0,0,1-25.12-25.12h0V165.65h0V82A25.12,25.12,0,0,1,47.93,56.87H148.32A25.12,25.12,0,0,1,173.44,82h0v23Z" transform="translate(-15.54 -49.6)"/></g><g id="INITIALS"><path class="cls-2" d="M50.61,149.09h0a27.12,27.12,0,0,1-21.09-10v59.35a21.15,21.15,0,0,0,21.09,21.09H71.7V139.07A27.13,27.13,0,0,1,50.61,149.09Z" transform="translate(-15.54 -49.6)"/><path class="cls-2" d="M50.61,94.7h0a27.14,27.14,0,0,1,21.09,10V62.18H50.61A21.15,21.15,0,0,0,29.52,83.27v21.46A27.13,27.13,0,0,1,50.61,94.7Z" transform="translate(-15.54 -49.6)"/><path class="cls-2" d="M99.49,94.84h21V83.27A21.15,21.15,0,0,0,99.4,62.18H78.31V105A27.13,27.13,0,0,1,99.49,94.84Z" transform="translate(-15.54 -49.6)"/><path class="cls-3" d="M99.4,100.94h0A21.09,21.09,0,0,0,78.31,122v21h21A21.16,21.16,0,0,0,120.41,122v-21Z" transform="translate(-15.54 -49.6)"/><path class="cls-3" d="M146.29,100.49H126.9v21.93a27.2,27.2,0,0,1-27.2,27.19H78.31v70.14H99.4a21.15,21.15,0,0,0,21.09-21.09V144h25.8c11.6,0,21.09-10.82,21.09-22.42A21.15,21.15,0,0,0,146.29,100.49Z" transform="translate(-15.54 -49.6)"/></g><g id="BALL"><path class="cls-3" d="M65,106.62a21.05,21.05,0,0,0-35.4,13.62Z" transform="translate(-15.54 -49.6)"/><path class="cls-3" d="M68.34,110.61,29.82,125.43A20.93,20.93,0,0,0,33,133.6l38.43-14.79A20.84,20.84,0,0,0,68.34,110.61Z" transform="translate(-15.54 -49.6)"/><path class="cls-3" d="M36.4,137.56A21.07,21.07,0,0,0,71.6,124Z" transform="translate(-15.54 -49.6)"/></g></g><g id="TEXT"><path class="cls-2" d="M208.84,49.8H253c18.9,0,32.06,9.4,32.06,25.62,0,16.71-12.41,26.31-32,26.31H234.28V128.4H208.84Zm25.44,34.66h14.78c6.91,0,10.89-2.8,10.89-8.82,0-5-3-8.64-10.89-8.64H234.28Z" transform="translate(-15.54 -49.6)"/><path class="cls-2" d="M311.45,113.74l-5,14.66H280.86l29.73-78.6h33.3l31.67,78.6H348.12l-5.34-14.66Zm25.39-18.19c-5.12-14.14-8.09-23.08-10.06-29.66h-.39c-1.71,6.51-5.19,17.66-9.37,29.66Z" transform="translate(-15.54 -49.6)"/><path class="cls-2" d="M409,99.48V128.4H384V49.8h47.53c19.53,0,29.73,9.55,29.73,22.56,0,10.13-5.87,16.18-13.56,18.84,4.25,1.81,11.47,5.58,11.47,18.91v4.26c0,4.46,0,10.19,1.08,14H434.79c-1.3-3.3-1.6-8.13-1.6-16.26v-2.65c0-7.31-2.34-10-12.23-10Zm0-16.32h15.64c7,0,10.85-2.54,10.85-8.22,0-5.23-3.58-8.18-10.86-8.18H409Z" transform="translate(-15.54 -49.6)"/><path class="cls-2" d="M494.63,67.92H468.69V49.8H546V67.92H520.17V128.4H494.63Z" transform="translate(-15.54 -49.6)"/><path class="cls-2" d="M582.61,49.8v78.6H557V49.8Z" transform="translate(-15.54 -49.6)"/><path class="cls-2" d="M601,49.8h25.61v60.41h42.19l-3,18.19H601Z" transform="translate(-15.54 -49.6)"/><path class="cls-2" d="M677.94,49.8h25.61v60.41h42.2l-3,18.19h-64.8Z" transform="translate(-15.54 -49.6)"/><path class="cls-2" d="M822,97.13h-42v13.12h47l-2.94,18.15h-69.2V49.8h69.41V68H780.05v11h42Z" transform="translate(-15.54 -49.6)"/><path class="cls-2" d="M234.77,169.51H208.84V151.39h77.25v18.12H260.31V230H234.77Z" transform="translate(-15.54 -49.6)"/><path class="cls-2" d="M364.34,198.72h-42v13.12H369.3L366.37,230H297.16v-78.6h69.42v18.19H322.35v10.95h42Z" transform="translate(-15.54 -49.6)"/><path class="cls-2" d="M381.45,230v-78.6h29.77c17.41,28.15,23.29,38.36,28.36,48.48H440c-.7-7.39-.66-21.61-.66-34.6V151.39h23V230H434.2c-6.12-10.92-25.45-44.38-30.11-54h-.38c.75,9,.79,19.41.79,34.83V230Z" transform="translate(-15.54 -49.6)"/><path class="cls-2" d="M480.7,230v-78.6h29.77c17.41,28.15,23.29,38.36,28.35,48.48h.42c-.7-7.39-.67-21.61-.67-34.6V151.39h23V230H533.45c-6.13-10.92-25.45-44.38-30.11-54H503c.76,9,.79,19.41.79,34.83V230Z" transform="translate(-15.54 -49.6)"/><path class="cls-2" d="M605.52,151.39V230H580v-78.6Z" transform="translate(-15.54 -49.6)"/><path class="cls-2" d="M642.43,206.34c1.66,5.2,5.7,9.1,15.93,9.1,9.08,0,11.9-2.73,11.9-6.64,0-4.18-2.52-6.62-17.25-9.19-29-5.07-33.21-15-33.21-25.33,0-15.55,14.63-24.62,36.1-24.62,26.13,0,36.63,12.09,37.65,23.72H668.72c-.89-3.5-3.11-7.52-12.86-7.52-6.92,0-10.19,2.25-10.19,5.93s3.27,5.33,15.47,7.54c29.71,5.32,35.46,14.65,35.46,26.48,0,15-12.61,25.9-39.31,25.9-26.35,0-38.08-11.18-40.43-25.37Z" transform="translate(-15.54 -49.6)"/></g></svg>