<?xml version="1.0" encoding="utf-8"?>
<!-- Generator: Adobe Illustrator 24.2.3, SVG Export Plug-In . SVG Version: 6.00 Build 0)  -->
<svg version="1.1" id="Layer_1" xmlns="http://www.w3.org/2000/svg" xmlns:xlink="http://www.w3.org/1999/xlink" x="0px" y="0px"
	 viewBox="0 0 82.4 20" style="enable-background:new 0 0 82.4 20;" xml:space="preserve">
<style type="text/css">
	.st0{fill:#FFFFFF;}
	.st1{fill:#3EA835;}
	.st2{fill:#FAF19C;}
</style>
<g id="ICON">
	<g id="FRAME">
		<path id="BACKGROUND" class="st0" d="M16.55,6.47v9.38c0,1.38-1.12,2.49-2.49,2.49H4.09c-1.38,0-2.49-1.12-2.49-2.49l0,0v-3.36
			l0,0v-8.3c0-1.38,1.12-2.49,2.49-2.49c0,0,0,0,0,0h9.96c1.38,0,2.49,1.12,2.49,2.49c0,0,0,0,0,0l0,0V6.47z"/>
		<path id="OUTLINE" class="st1" d="M14.06,0.97H4.09c-1.78,0-3.21,1.44-3.21,3.21c0,0,0,0,0,0v11.66l0,0
			c0,1.78,1.44,3.21,3.21,3.21l0,0h9.96c1.78,0,3.21-1.44,3.21-3.21V4.19l0,0C17.27,2.41,15.83,0.97,14.06,0.97
			C14.06,0.97,14.06,0.97,14.06,0.97z M16.55,6.47v9.38c0,1.38-1.12,2.49-2.49,2.49H4.09c-1.38,0-2.49-1.12-2.49-2.49l0,0v-3.36l0,0
			v-8.3c0-1.38,1.12-2.49,2.49-2.49c0,0,0,0,0,0h9.96c1.38,0,2.49,1.12,2.49,2.49c0,0,0,0,0,0l0,0V6.47z"/>
	</g>
	<g id="INITIALS">
		<path class="st1" d="M4.36,10.85L4.36,10.85c-0.81,0-1.58-0.36-2.09-0.99v5.89c0,1.15,0.94,2.09,2.09,2.09h2.09V9.85
			C5.94,10.48,5.17,10.85,4.36,10.85z"/>
		<path class="st1" d="M4.36,5.45L4.36,5.45c0.81,0,1.58,0.36,2.09,0.99V2.22H4.36c-1.15,0-2.09,0.94-2.09,2.09v2.13
			C2.78,5.81,3.54,5.45,4.36,5.45z"/>
		<path class="st1" d="M9.21,5.46h2.08V4.31c0-1.15-0.94-2.09-2.09-2.09H7.11v4.25C7.62,5.83,8.39,5.46,9.21,5.46z"/>
		<path class="st2" d="M9.2,6.07L9.2,6.07C8.04,6.07,7.11,7,7.11,8.16v2.08h2.08c1.15,0,2.09-0.93,2.09-2.08V6.07L9.2,6.07z"/>
		<path class="st2" d="M13.85,6.02h-1.92V8.2c0,1.49-1.21,2.7-2.7,2.7H7.11v6.96H9.2c1.15,0,2.09-0.94,2.09-2.09v-5.43h2.56
			c1.15,0,2.09-1.07,2.09-2.23C15.94,6.96,15.01,6.03,13.85,6.02z"/>
	</g>
	<g id="BALL">
		<path class="st2" d="M5.79,6.63C4.94,5.84,3.62,5.88,2.83,6.72C2.51,7.07,2.31,7.51,2.27,7.98L5.79,6.63z"/>
		<path class="st2" d="M6.12,7.03L2.29,8.5c0.05,0.29,0.15,0.57,0.32,0.81l3.81-1.47C6.38,7.55,6.28,7.27,6.12,7.03z"/>
		<path class="st2" d="M2.95,9.7c0.85,0.78,2.17,0.72,2.95-0.13c0.31-0.34,0.5-0.76,0.54-1.21L2.95,9.7z"/>
	</g>
</g>
<g id="TEXT">
	<path class="st1" d="M20.06,0.99h4.38c1.88,0,3.18,0.93,3.18,2.54c0,1.66-1.23,2.61-3.18,2.61h-1.86v2.65h-2.53V0.99z M22.59,4.43
		h1.47c0.69,0,1.08-0.28,1.08-0.88c0-0.5-0.3-0.86-1.08-0.86h-1.47V4.43z"/>
	<path class="st1" d="M30.25,7.34l-0.5,1.46h-2.54l2.95-7.8h3.31l3.14,7.8h-2.72l-0.53-1.46L30.25,7.34z M32.77,5.53
		c-0.51-1.4-0.8-2.29-1-2.94h-0.04c-0.17,0.65-0.52,1.75-0.93,2.94L32.77,5.53z"/>
	<path class="st1" d="M39.93,5.92v2.87h-2.48v-7.8h4.72c1.94,0,2.95,0.95,2.95,2.24c0,1.01-0.58,1.61-1.35,1.87
		c0.42,0.18,1.14,0.55,1.14,1.88V7.4c0,0.44,0,1.01,0.11,1.39h-2.53c-0.13-0.33-0.16-0.81-0.16-1.61V6.91
		c0-0.73-0.23-0.99-1.21-0.99L39.93,5.92z M39.93,4.3h1.55c0.69,0,1.08-0.25,1.08-0.82c0-0.52-0.36-0.81-1.08-0.81h-1.55V4.3z"/>
	<path class="st1" d="M48.43,2.79h-2.57v-1.8h7.67v1.8h-2.56v6h-2.53V2.79z"/>
	<path class="st1" d="M57.16,0.99v7.8h-2.54v-7.8H57.16z"/>
	<path class="st1" d="M58.99,0.99h2.54v6h4.19l-0.3,1.81h-6.43V0.99z"/>
	<path class="st1" d="M66.62,0.99h2.54v6h4.19l-0.3,1.81h-6.43L66.62,0.99z"/>
	<path class="st1" d="M80.92,5.69h-4.17v1.3h4.66l-0.29,1.8h-6.87v-7.8h6.89V2.8h-4.39v1.09h4.17L80.92,5.69z"/>
	<path class="st1" d="M22.64,12.87h-2.57v-1.8h7.67v1.8h-2.56v6h-2.53V12.87z"/>
	<path class="st1" d="M35.5,15.77h-4.17v1.3h4.66l-0.29,1.8h-6.87v-7.8h6.89v1.81h-4.39v1.09h4.17L35.5,15.77z"/>
	<path class="st1" d="M37.19,18.88v-7.8h2.95c1.73,2.79,2.31,3.81,2.81,4.81h0.04c-0.07-0.73-0.07-2.14-0.07-3.43v-1.38h2.28v7.8
		h-2.79c-0.61-1.08-2.53-4.4-2.99-5.36H39.4c0.07,0.89,0.08,1.93,0.08,3.46v1.9H37.19z"/>
	<path class="st1" d="M47.05,18.88v-7.8H50c1.73,2.79,2.31,3.81,2.81,4.81h0.04c-0.07-0.73-0.07-2.14-0.07-3.43v-1.38h2.28v7.8
		h-2.79c-0.61-1.08-2.53-4.4-2.99-5.36h-0.03c0.08,0.89,0.08,1.93,0.08,3.46v1.9H47.05z"/>
	<path class="st1" d="M59.43,11.08v7.8H56.9v-7.8L59.43,11.08z"/>
	<path class="st1" d="M63.1,16.53c0.16,0.52,0.57,0.9,1.58,0.9c0.9,0,1.18-0.27,1.18-0.66c0-0.41-0.25-0.66-1.71-0.91
		c-2.88-0.5-3.3-1.49-3.3-2.51c0-1.54,1.45-2.44,3.58-2.44c2.59,0,3.64,1.2,3.74,2.35h-2.46c-0.09-0.35-0.31-0.75-1.28-0.75
		c-0.69,0-1.01,0.22-1.01,0.59s0.32,0.53,1.54,0.75c2.95,0.53,3.52,1.45,3.52,2.63c0,1.49-1.25,2.57-3.9,2.57
		c-2.62,0-3.78-1.11-4.01-2.52L63.1,16.53z"/>
</g>
</svg>
